<?xml version="1.0" encoding="UTF-8" standalone="no"?>
<!-- Created with Inkscape (http://www.inkscape.org/) -->

<svg
   width="21.166666mm"
   height="21.166668mm"
   viewBox="0 0 21.166666 21.166668"
   version="1.1"
   id="svg1"
   xml:space="preserve"
   xmlns:inkscape="http://www.inkscape.org/namespaces/inkscape"
   xmlns:sodipodi="http://sodipodi.sourceforge.net/DTD/sodipodi-0.dtd"
   xmlns="http://www.w3.org/2000/svg"
   xmlns:svg="http://www.w3.org/2000/svg"><sodipodi:namedview
     id="namedview1"
     pagecolor="#ffffff"
     bordercolor="#000000"
     borderopacity="0.25"
     inkscape:showpageshadow="2"
     inkscape:pageopacity="0.0"
     inkscape:pagecheckerboard="0"
     inkscape:deskcolor="#d1d1d1"
     inkscape:document-units="mm"><inkscape:page
       x="1.8670913e-06"
       y="0"
       width="21.166666"
       height="21.166668"
       id="page5"
       margin="0"
       bleed="0" /></sodipodi:namedview><defs
     id="defs1" /><path
     fill-rule="evenodd"
     clip-rule="evenodd"
     d="m 7.6440549,8.3050065 c -1.25834,0 -2.27836,1.0198894 -2.27836,2.2781685 0,1.258358 1.02008,2.278433 2.27836,2.278433 h 2.27835 v -2.232475 c -1.9e-4,-0.01527 -2.7e-4,-0.03061 -2.7e-4,-0.04596 0,-0.01527 8e-5,-0.03061 2.7e-4,-0.04585 V 8.3050065 Z m 2.27835,-1.3229167 h -2.27835 c -1.25828,0 -2.27836,-1.0200746 -2.27836,-2.2783801 0,-1.258279 1.02008,-2.2783404 2.27836,-2.2783404 h 2.27835 z M 11.245325,2.4253693 v 4.5566676 l 2.27779,-1.059e-4 c 1.25826,0 2.27867,-1.0199423 2.27867,-2.2782213 0,-1.258279 -1.02004,-2.2783404 -2.2784,-2.2783404 z m 2.27787,5.8794784 c -1.246,1.323e-4 -2.2584,1.000469 -2.27787,2.2418143 v 0.07303 c 0.0195,1.241505 1.03195,2.241921 2.27806,2.241921 1.25836,0 2.2784,-1.020075 2.2784,-2.278433 0,-1.2582791 -1.02031,-2.2783008 -2.27859,-2.2783273 z M 7.6440549,14.184525 c -1.25826,0 -2.27849,1.020206 -2.27849,2.278565 0,1.258358 1.02005,2.278433 2.27835,2.278433 1.25834,0 2.27838,-1.020075 2.27838,-2.278433 l 1.1e-4,-2.278565 z"
     fill="#fe705a"
     id="path1-0"
     style="fill:#16a249;fill-opacity:1;stroke-width:0.264583" /></svg>
