<?xml version="1.0" encoding="UTF-8" standalone="no"?>
<!-- Created with Inkscape (http://www.inkscape.org/) -->

<svg
   width="21.166666mm"
   height="21.166668mm"
   viewBox="0 0 21.166666 21.166668"
   version="1.1"
   id="svg1"
   xml:space="preserve"
   xmlns:inkscape="http://www.inkscape.org/namespaces/inkscape"
   xmlns:sodipodi="http://sodipodi.sourceforge.net/DTD/sodipodi-0.dtd"
   xmlns="http://www.w3.org/2000/svg"
   xmlns:svg="http://www.w3.org/2000/svg"><sodipodi:namedview
     id="namedview1"
     pagecolor="#ffffff"
     bordercolor="#000000"
     borderopacity="0.25"
     inkscape:showpageshadow="2"
     inkscape:pageopacity="0.0"
     inkscape:pagecheckerboard="0"
     inkscape:deskcolor="#d1d1d1"
     inkscape:document-units="mm"><inkscape:page
       x="0"
       y="0"
       width="21.166666"
       height="21.166668"
       id="page8"
       margin="0"
       bleed="0" /></sodipodi:namedview><defs
     id="defs1" /><path
     d="m 8.8194396,14.993065 h -0.88194 V 8.3784813 L 12.53967,15.281725 c 0.41346,0.620184 1.17229,0.913606 1.89547,0.73279 l 0.22392,-0.05599 c 0.19632,-0.04913 0.33401,-0.22553 0.33401,-0.427831 V 6.1736025 c 0,0 0.88193,0 0.88193,-0.8819357 h -2.64583 c -0.88194,0 -0.88194,0.8819357 -0.88194,0.8819357 h 0.88194 V 11.465269 L 8.9513896,5.4763195 c -0.0828,-0.1158875 -0.21638,-0.1846527 -0.3588,-0.1846527 h -2.418975 c -0.88194,0 -0.88194,0.8819357 -0.88194,0.8819357 h 0.88194 v 8.8194625 c 0,0 -0.88194,0 -0.88194,0.881935 h 2.645825 c 0.88194,0 0.88194,-0.881935 0.88194,-0.881935 z"
     fill="#fe705a"
     id="path1-3"
     style="fill:#16a249;fill-opacity:1;stroke-width:0.264583" /><path
     fill-rule="evenodd"
     clip-rule="evenodd"
     d="m 0.88212464,3.5277691 c 0,-1.4612621 1.18457996,-2.64584668 2.64583996,-2.64584668 H 17.63906 c 1.46129,0 2.64583,1.18458458 2.64583,2.64584668 V 17.638872 c 0,1.461294 -1.18454,2.645833 -2.64583,2.645833 H 3.5279646 c -1.46126,0 -2.64583996,-1.184539 -2.64583996,-2.645833 z M 3.5279646,2.6458122 H 17.63906 c 0.4871,0 0.88194,0.3948589 0.88194,0.8819569 V 17.638872 c 0,0.487098 -0.39484,0.881935 -0.88194,0.881935 H 3.5279646 c -0.48707,0 -0.88194,-0.394837 -0.88194,-0.881935 V 3.5277691 c 0,-0.487098 0.39487,-0.8819569 0.88194,-0.8819569 z"
     fill="#fe705a"
     id="path2-8"
     style="fill:#16a249;fill-opacity:1;stroke-width:0.264583" /></svg>
