<?xml version="1.0" encoding="UTF-8" standalone="no"?>
<!-- Created with Inkscape (http://www.inkscape.org/) -->

<svg
   width="21.43125mm"
   height="21.431252mm"
   viewBox="0 0 21.43125 21.431252"
   version="1.1"
   id="svg1"
   xml:space="preserve"
   xmlns:inkscape="http://www.inkscape.org/namespaces/inkscape"
   xmlns:sodipodi="http://sodipodi.sourceforge.net/DTD/sodipodi-0.dtd"
   xmlns="http://www.w3.org/2000/svg"
   xmlns:svg="http://www.w3.org/2000/svg"><sodipodi:namedview
     id="namedview1"
     pagecolor="#ffffff"
     bordercolor="#000000"
     borderopacity="0.25"
     inkscape:showpageshadow="2"
     inkscape:pageopacity="0.0"
     inkscape:pagecheckerboard="0"
     inkscape:deskcolor="#d1d1d1"
     inkscape:document-units="mm"><inkscape:page
       x="-9.8162752e-07"
       y="0"
       width="21.43125"
       height="21.431252"
       id="page6"
       margin="0"
       bleed="0" /></sodipodi:namedview><defs
     id="defs1" /><path
     d="M 19.32127,3.4594536 15.5073,1.6232347 c -0.21537,-0.103849 -0.45773,-0.1381205 -0.69347,-0.09806 -0.23575,0.040058 -0.45318,0.1524635 -0.62217,0.3216328 L 1.7066404,13.229193 c -0.15148,0.137452 -0.24216,0.329433 -0.25208,0.533744 -0.01,0.204312 0.0617,0.404178 0.19916,0.555678 0.0165,0.01786 0.0331,0.03506 0.0509,0.05093 l 1.01931,0.926041 c 0.13319,0.121206 0.30464,0.191956 0.48455,0.19992 0.17992,0.008 0.35695,-0.04731 0.50036,-0.156263 L 18.74712,3.9357037 c 0.11359,-0.086201 0.249,-0.1389857 0.39095,-0.1524001 0.14195,-0.013414 0.28483,0.013044 0.41257,0.076438 0.12771,0.063368 0.23521,0.1611577 0.31038,0.2823104 0.0752,0.1211792 0.11504,0.2609056 0.11509,0.4035161 v -0.044318 c 0,-0.2176991 -0.0615,-0.4309533 -0.17732,-0.6152621 C 19.68295,3.7017057 19.51743,3.5538301 19.32127,3.4594536 Z"
     fill="#ff644d"
     id="path1"
     style="fill:#16a249;fill-opacity:1;stroke-width:0.264583" /><path
     d="m 19.32127,17.971797 -3.81397,1.83687 c -0.21545,0.103558 -0.45773,0.137663 -0.69339,0.09761 -0.23567,-0.04003 -0.4531,-0.152268 -0.62225,-0.321178 L 1.7066404,8.2020571 c -0.15148,-0.137451 -0.24216,-0.3294592 -0.25208,-0.5337704 -0.01,-0.2042848 0.0617,-0.4041775 0.19916,-0.5556515 0.0165,-0.017859 0.0331,-0.035057 0.0509,-0.050932 l 1.01931,-0.9260417 c 0.13332,-0.1217348 0.30517,-0.1928019 0.48553,-0.2007658 0.18037,-0.00799 0.3578,0.047625 0.50136,0.1571096 L 18.74709,17.495547 c 0.11359,0.08618 0.249,0.138959 0.39095,0.152373 0.14195,0.01344 0.28483,-0.01304 0.41257,-0.07644 0.12771,-0.06337 0.23521,-0.161157 0.31038,-0.28231 0.0752,-0.121153 0.11504,-0.260906 0.11509,-0.40349 v 0.04763 c -7.1e-4,0.217091 -0.0625,0.429631 -0.1783,0.613278 -0.11581,0.183647 -0.28093,0.330994 -0.47654,0.425212 z"
     fill="#ff644d"
     id="path2"
     style="fill:#16a249;fill-opacity:1;stroke-width:0.264583" /><path
     d="m 15.50709,19.808693 c -0.21545,0.103558 -0.45776,0.137663 -0.69342,0.0976 -0.23567,-0.04003 -0.45307,-0.152268 -0.62222,-0.321178 0.095,0.09374 0.21553,0.157375 0.34652,0.182907 0.131,0.02553 0.2666,0.01185 0.38987,-0.03937 0.12324,-0.0512 0.22862,-0.137636 0.30294,-0.24847 0.0743,-0.110861 0.1143,-0.241168 0.11491,-0.374624 V 2.3256796 C 15.3458,2.1915941 15.30609,2.060493 15.23163,1.9489844 15.15723,1.8374731 15.05129,1.7505733 14.92741,1.6992865 14.80353,1.6480025 14.6672,1.6346435 14.5357,1.6609005 c -0.13147,0.026257 -0.25223,0.09095 -0.3469,0.185883 0.16902,-0.1691058 0.3864,-0.2815193 0.62209,-0.321691 0.23569,-0.040172 0.47805,-0.00611 0.69355,0.097457 L 19.31775,3.45612 c 0.19677,0.093927 0.36296,0.2415646 0.47942,0.4258998 0.11645,0.1843352 0.17841,0.397854 0.17873,0.6158971 V 16.933334 c 3e-5,0.217858 -0.0615,0.431297 -0.17743,0.615738 -0.11599,0.184441 -0.2817,0.33237 -0.47807,0.42672 z"
     fill="#fe705a"
     id="path3"
     style="fill:#16a249;fill-opacity:1;stroke-width:0.264583" /></svg>
